<svg width="116" height="117" viewBox="0 0 116 117" fill="none" xmlns="http://www.w3.org/2000/svg">
<g clip-path="url(#clip0_215_476)">
<path d="M34.0942 66.6106C37.4279 66.6106 40.6802 65.4899 43.3092 63.4396L22.169 42.1172C17.0737 48.7599 18.2933 58.3277 24.8793 63.467C27.5354 65.4899 30.7606 66.6106 34.0942 66.6106Z" fill="#C3CAD6"/>
<path d="M96.9736 51.3852C96.9736 48.0228 95.8623 44.7425 93.8296 42.0908L72.6895 63.4133C79.2754 68.5525 88.7343 67.3224 93.8296 60.6796C95.8623 58.028 96.9736 54.7476 96.9736 51.3852Z" fill="#C3CAD6"/>
<path d="M107.625 28.1777L98.2748 37.6088C105.809 46.7119 104.617 60.2707 95.5916 67.8703C87.6776 74.5404 76.186 74.5404 68.272 67.8703L58 78.2308L47.7551 67.8976C38.7299 75.4971 25.2869 74.2943 17.7523 65.1913C11.1393 57.209 11.1393 45.6184 17.7523 37.6361L12.9551 32.7976L8.40187 28.1777C2.9 37.3081 0 47.8053 0 58.4939C0 90.8055 25.9645 116.994 58 116.994C90.0355 116.994 116 90.8055 116 58.4939C116.027 47.8053 113.1 37.3081 107.625 28.1777Z" fill="#C3CAD6"/>
<path d="M99.9552 18.1202C77.8664 -5.2525 41.1692 -6.12727 17.9963 16.1519C17.3187 16.808 16.6683 17.4641 16.0449 18.1202C14.6085 19.651 13.2533 21.2365 11.9795 22.904L58 69.3487L104.021 22.904C102.774 21.2365 101.392 19.651 99.9552 18.1202ZM58 7.6503C71.5514 7.6503 84.1813 12.9262 93.6673 22.5487L58 58.5234L22.3328 22.5487C31.8187 12.9262 44.4486 7.6503 58 7.6503Z" fill="#C3CAD6"/>
</g>
<defs>
<clipPath id="clip0_215_476">
<rect width="116" height="117" fill="white"/>
</clipPath>
</defs>
</svg>
